Coordinates
version=1
nRows=6
nColumns=36
inDegrees=yes

Units are S.I. units (second, meters, Newtons, ...)
If the header above contains a line with 'inDegrees', this indicates whether rotational values are in degrees (yes) or radians (no).

endheader
time	pelvis_tilt	pelvis_list	pelvis_rotation	pelvis_tx	pelvis_ty	pelvis_tz	hip_flexion_r	hip_adduction_r	hip_rotation_r	knee_angle_r	knee_angle_r_beta	ankle_angle_r	subtalar_angle_r	mtp_angle_r	hip_flexion_l	hip_adduction_l	hip_rotation_l	knee_angle_l	knee_angle_l_beta	ankle_angle_l	subtalar_angle_l	mtp_angle_l	lumbar_extension	lumbar_bending	lumbar_rotation	arm_flex_r	arm_add_r	arm_rot_r	elbow_flex_r	pro_sup_r	arm_flex_l	arm_add_l	arm_rot_l	elbow_flex_l	pro_sup_l
      1.23750000	    -18.53730312	     -0.35166761	     -4.85298245	     -0.82773104	      1.10628163	     -0.04361157	     43.66681615	      5.92556382	      5.67538571	     65.43324136	      1.14202550	     35.36108867	    -13.04240243	     -7.49999987	     38.74643438	     -0.27640623	     10.22799679	     63.79044246	      1.11335325	     33.29879978	    -23.65877308	     -7.49999987	    -28.77357591	     -0.91102972	     -0.73977805	     14.85366733	     -3.90798049	     -4.50015452	     22.66503385	     79.08792180	     19.86973669	     -5.93593053	      6.51977412	     21.44606599	     71.38019772
      1.24166670	    -18.27876050	     -0.33435775	     -4.99757146	     -0.82750980	      1.10695510	     -0.04709572	     43.18039552	      5.68000197	      5.78523677	     65.30678327	      1.13981839	     35.13747821	    -13.08012227	     -7.49999987	     38.15082207	      0.04657376	     10.19439179	     63.70473523	      1.11185738	     32.98923294	    -24.25301258	     -7.49999987	    -28.58550641	     -0.56147072	     -0.83212012	     15.96560764	     -4.56739758	     -2.64041033	     23.50064798	     80.56290649	     20.85328806	     -5.42299829	      6.64107934	     21.71629938	     72.83808693
      1.24583330	    -18.26890926	     -0.34817982	     -5.04329769	     -0.82469488	      1.10143066	     -0.04749947	     43.28181308	      5.49947058	      5.80159810	     65.82439475	      1.14885242	     35.50203396	    -12.72629880	     -7.49999987	     38.04854225	      0.29556762	     10.27362685	     64.09234612	      1.11862247	     33.37725842	    -24.55491038	     -7.49999987	    -28.19008479	     -0.12484393	     -0.85645912	     16.96309281	     -4.87529613	     -2.72076846	     24.85317089	     79.41157918	     21.56589586	     -4.92251101	      6.15298692	     22.85220911	     72.20315926
      1.25000000	    -18.39240663	     -0.37605404	     -4.95965713	     -0.82794368	      1.10495295	     -0.04834937	     43.55800005	      5.33923738	      5.74835397	     65.97816500	      1.15153621	     35.51668204	    -12.88809266	     -7.49999987	     38.40564873	      0.46292824	     10.20495821	     64.33994667	      1.12294391	     33.30987375	    -24.80770064	     -7.49999987	    -27.80072476	      0.22522236	     -0.95656830	     18.57464853	     -4.99056391	     -2.63696149	     25.55760806	     79.50300816	     23.06698070	     -4.44302335	      6.21674906	     23.45867706	     72.28717823
      1.25416670	    -18.90451470	     -0.53153683	     -4.57307763	     -0.82908328	      1.10518950	     -0.05417280	     44.37489750	      4.87854053	      5.34868027	     66.21486325	      1.15566738	     34.86671406	    -13.28125267	     -7.49999987	     39.39713296	      1.06014282	     10.85998374	     64.75474177	      1.13018345	     31.95604436	    -26.66435301	     -7.49999987	    -27.08403955	      1.13207206	     -1.42388053	     19.57026034	     -5.72256203	     -1.83459111	     28.19255415	     86.88863233	     24.28923410	     -3.85645403	      5.30689330	     25.26245030	     79.96724725
      1.25833330	    -19.24124912	     -0.46767459	     -4.34799742	     -0.82821369	      1.10533734	     -0.05419444	     44.84965496	      4.40057449	      5.05796268	     66.18364475	      1.15512251	     34.44526223	    -13.48431836	     -7.49999987	     40.06357776	      1.56973699	     11.22643323	     65.16468764	      1.13733836	     31.39118946	    -27.45828194	     -7.49999987	    -26.60878384	      1.49578669	     -1.73526497	     20.94864147	     -5.89807644	     -0.67926044	     29.82420069	     85.75911731	     25.84495027	     -3.42788152	      5.53000769	     25.74190810	     78.82482903
